<?xml version="1.0" standalone="no"?>
<!DOCTYPE svg PUBLIC "-//W3C//DTD SVG 20010904//EN"
 "http://www.w3.org/TR/2001/REC-SVG-20010904/DTD/svg10.dtd">
<svg version="1.0" xmlns="http://www.w3.org/2000/svg"
 width="100.000000pt" height="100.000000pt" viewBox="0 0 100.000000 100.000000"
 preserveAspectRatio="xMidYMid meet">

<g transform="translate(0.000000,100.000000) scale(0.100000,-0.100000)"
fill="#000000" stroke="none">
<path d="M455 876 c-18 -13 -18 -18 -6 -87 20 -118 22 -111 -41 -144 -31 -17
-60 -34 -64 -38 -11 -10 -33 -192 -34 -274 0 -39 -3 -78 -6 -87 -12 -31 -24
-16 -24 29 0 29 -4 45 -12 45 -10 0 -12 -22 -10 -86 2 -56 0 -90 -8 -98 -9 -8
-11 1 -9 39 5 82 0 125 -13 125 -10 0 -12 -19 -10 -71 3 -49 0 -74 -8 -79 -15
-9 -4 -30 16 -30 8 0 14 -4 14 -10 0 -5 9 -10 20 -10 17 0 20 7 20 46 0 40 2
45 17 40 10 -4 45 -4 79 -1 l61 7 28 64 c15 35 32 64 37 64 5 0 22 -29 37 -64
l29 -63 56 -7 c31 -4 65 -5 75 -1 17 5 20 0 23 -37 2 -28 8 -44 18 -46 13 -2
15 15 15 108 0 98 -2 110 -17 110 -15 0 -18 -9 -18 -45 0 -47 -12 -58 -29 -27
-6 12 -6 34 1 63 6 25 7 76 3 119 -4 41 -6 90 -6 108 2 34 -22 63 -99 121 -26
20 -30 28 -25 50 15 55 15 135 -1 158 -17 27 -78 32 -109 9z m-52 -540 c-5
-90 -9 -106 -22 -104 -14 3 -15 18 -12 98 2 52 8 106 13 120 18 49 28 -3 21
-114z m231 -4 c-1 -51 -4 -95 -6 -98 -3 -2 -10 41 -17 96 -8 77 -8 106 1 123
l11 22 7 -25 c3 -14 6 -67 4 -118z"/>
<path d="M760 216 c0 -84 10 -110 33 -87 9 9 9 14 -1 20 -10 6 -13 28 -10 80
2 52 0 71 -9 71 -10 0 -13 -24 -13 -84z"/>
<path d="M483 240 l-20 -45 34 -3 c19 -2 37 -1 39 1 3 2 -4 24 -15 48 l-19 44
-19 -45z"/>
<path d="M174 210 c0 -40 4 -60 12 -60 15 0 25 51 18 90 -11 53 -29 34 -30
-30z"/>
<path d="M797 240 c-8 -39 2 -90 18 -90 9 0 12 18 11 60 -1 64 -19 82 -29 30z"/>
<path d="M150 216 c0 -8 5 -18 10 -21 6 -3 10 3 10 14 0 12 -4 21 -10 21 -5 0
-10 -6 -10 -14z"/>
<path d="M830 210 c0 -19 3 -21 12 -12 9 9 9 15 0 24 -9 9 -12 7 -12 -12z"/>
<path d="M310 160 c0 -5 7 -7 15 -4 8 4 15 8 15 10 0 2 -7 4 -15 4 -8 0 -15
-4 -15 -10z"/>
<path d="M355 159 c-4 -6 -4 -13 -1 -16 3 -4 6 -1 6 6 0 8 8 11 20 8 11 -3 18
-1 14 4 -7 12 -31 11 -39 -2z"/>
<path d="M604 155 c-8 -19 4 -35 24 -34 15 1 15 2 0 6 -10 2 -18 11 -18 18 0
7 8 16 18 18 16 4 16 5 -1 6 -10 0 -20 -6 -23 -14z"/>
<path d="M650 155 c0 -14 6 -21 20 -21 14 0 20 7 20 21 0 17 -2 17 -10 5 -9
-13 -11 -13 -20 0 -8 12 -10 12 -10 -5z"/>
<path d="M317 129 c7 -7 15 -10 18 -7 3 3 -2 9 -12 12 -14 6 -15 5 -6 -5z"/>
<path d="M375 130 c-16 -7 -17 -9 -3 -9 9 -1 20 4 23 9 7 11 7 11 -20 0z"/>
</g>
</svg>
