
<svg version="1.0" 
 width="500.000000pt" height="500.000000pt" viewBox="0 0 500.000000 500.000000"
 preserveAspectRatio="xMidYMid meet">

<g transform="translate(0.000000,500.000000) scale(0.100000,-0.100000)"
fill="#000000" stroke="none">
<path d="M1540 3976 c-43 -12 -45 -14 -42 -47 3 -39 145 -681 165 -749 13 -44
14 -45 52 -43 65 5 105 22 105 45 0 24 -168 786 -176 799 -7 12 -49 10 -104
-5z"/>
<path d="M3325 3980 c-4 -6 -14 -39 -22 -73 -32 -137 -153 -711 -153 -728 0
-13 12 -21 38 -28 80 -20 99 -22 109 -9 9 12 169 728 175 788 2 17 -4 27 -22
36 -39 19 -116 28 -125 14z"/>
<path d="M1815 3895 c-5 -2 -22 -6 -37 -9 -19 -4 -28 -13 -28 -26 0 -35 119
-553 129 -563 7 -7 27 -7 58 -1 l48 9 -2 40 c-2 45 -98 497 -113 533 -9 20
-28 26 -55 17z"/>
<path d="M3096 3884 c-12 -39 -116 -535 -116 -553 0 -26 9 -31 68 -38 l48 -5
27 118 c15 66 43 195 62 288 41 192 41 191 -37 202 -39 6 -47 4 -52 -12z"/>
<path d="M1978 3783 c-10 -2 -18 -6 -18 -7 0 -16 36 -99 56 -129 23 -35 24
-43 15 -86 -11 -54 -4 -120 14 -127 6 -3 24 0 40 6 26 10 27 13 21 53 -4 23
-20 99 -37 170 -33 135 -33 135 -91 120z"/>
<path d="M2912 3748 c-32 -124 -62 -292 -55 -299 4 -4 24 -9 43 -11 33 -3 35
-2 41 37 4 22 3 62 -3 88 -8 40 -7 51 5 65 22 24 57 103 57 128 0 23 -17 34
-55 34 -18 0 -25 -8 -33 -42z"/>
<path d="M1930 3725 c0 -13 51 -239 55 -243 7 -7 25 9 20 18 -3 5 -1 29 5 54
9 42 8 50 -14 84 -14 20 -28 49 -31 65 -4 15 -13 27 -21 27 -8 0 -14 -2 -14
-5z"/>
<path d="M2983 3662 c-31 -66 -31 -68 -19 -126 7 -33 15 -55 19 -50 3 6 15 53
27 105 11 52 22 104 25 117 11 47 -21 19 -52 -46z"/>
<path d="M2118 3693 c-31 -5 -32 -11 -15 -88 10 -42 16 -50 37 -53 46 -4 51 7
34 81 -9 37 -19 66 -22 66 -4 -1 -19 -4 -34 -6z"/>
<path d="M2801 3681 c-7 -11 -13 -45 -14 -73 -2 -53 -2 -53 29 -56 31 -3 32
-3 44 63 7 36 11 68 9 70 -2 2 -16 6 -31 10 -21 5 -29 2 -37 -14z"/>
<path d="M1740 3673 c0 -24 47 -223 54 -231 3 -3 9 -2 13 1 10 11 -41 240 -55
245 -6 2 -12 -5 -12 -15z"/>
<path d="M3179 3570 c-20 -104 -21 -146 -4 -128 5 5 55 223 55 240 0 4 -6 8
-14 8 -10 0 -21 -35 -37 -120z"/>
<path d="M3435 3600 c-10 -50 -16 -92 -14 -93 2 -2 28 -18 58 -37 78 -49 171
-181 200 -284 13 -48 12 -47 -79 87 -41 59 -85 120 -99 134 -24 24 -89 58 -97
51 -2 -2 -6 -23 -10 -46 l-7 -42 52 0 c49 0 52 -2 78 -42 14 -24 48 -96 75
-162 82 -198 147 -279 276 -343 62 -31 86 -37 155 -41 45 -2 102 1 127 6 l45
11 -27 -24 c-34 -29 -93 -39 -201 -33 -88 5 -168 33 -236 85 -32 25 -37 26
-79 14 -214 -57 -339 -222 -393 -521 l-14 -75 -3 105 c-2 93 3 144 24 217 6
23 6 23 -40 9 -96 -29 -210 -126 -291 -248 -21 -32 -39 -58 -41 -58 -1 0 2 15
7 32 5 18 9 35 9 37 0 10 -81 -14 -123 -37 -102 -55 -210 -213 -223 -326 -12
-101 53 -194 165 -236 179 -68 355 -4 451 163 22 38 30 46 30 30 0 -43 -40
-129 -77 -165 -72 -71 -218 -118 -363 -118 -190 0 -244 64 -257 307 -5 92 -3
120 11 157 35 90 207 220 355 266 89 28 99 38 62 61 -16 10 -69 30 -116 45
-99 31 -99 31 -108 -50 -5 -46 -11 -56 -58 -98 -29 -27 -56 -48 -61 -48 -4 0
8 26 27 58 44 72 72 146 81 211 4 32 11 51 20 51 11 0 36 67 50 138 9 43 -12
48 -44 13 l-28 -31 -17 71 c-10 40 -16 74 -13 76 2 2 13 -14 24 -37 18 -36 21
-38 33 -23 9 10 14 43 14 94 0 63 -4 83 -21 106 -12 15 -27 28 -35 28 -8 0
-36 14 -62 32 -27 18 -64 35 -84 39 -54 10 -145 -1 -189 -24 -73 -37 -134
-125 -134 -192 0 -27 21 -90 29 -90 5 0 14 14 21 30 22 52 27 32 11 -40 l-16
-70 -23 30 c-27 35 -38 37 -47 10 -8 -25 35 -160 51 -160 6 0 15 -17 18 -37
13 -74 48 -163 87 -224 22 -34 39 -63 37 -64 -2 -2 -28 17 -58 42 -50 41 -56
50 -68 106 -7 33 -15 63 -18 66 -5 5 -138 -32 -191 -54 -20 -8 -33 -20 -31
-27 3 -7 36 -25 75 -39 156 -57 300 -164 344 -256 20 -41 21 -55 16 -157 -9
-174 -42 -257 -117 -296 -39 -21 -195 -24 -278 -6 -187 39 -268 111 -306 269
-9 40 0 33 26 -20 32 -64 107 -139 170 -168 209 -97 477 38 454 229 -3 28 -21
83 -41 122 -61 124 -151 207 -261 240 l-46 14 6 -24 c3 -13 9 -32 12 -43 4
-10 -16 14 -43 52 -92 128 -191 211 -287 240 -25 8 -46 13 -46 12 0 -1 7 -34
15 -72 8 -39 14 -115 14 -170 l-1 -100 -15 65 c-7 36 -27 109 -44 162 -59 194
-181 323 -348 368 -40 10 -46 9 -80 -14 -100 -69 -216 -98 -338 -84 -61 7
-123 31 -123 47 0 5 16 5 37 -1 21 -6 76 -8 123 -6 109 5 189 41 278 123 64
59 78 83 182 309 22 49 52 105 66 123 22 29 31 33 71 33 l46 0 -7 42 c-4 23
-9 44 -11 46 -8 8 -74 -31 -102 -61 -17 -18 -61 -77 -98 -132 -86 -125 -87
-127 -74 -79 33 117 152 271 237 305 27 10 27 23 5 117 -15 66 -32 88 -47 64
-3 -5 -42 -30 -88 -57 -58 -34 -120 -84 -208 -169 -69 -67 -163 -146 -210
-177 -141 -93 -225 -193 -271 -325 -17 -47 -20 -75 -17 -138 l5 -79 -19 38
c-29 56 -50 171 -43 230 4 27 15 70 26 95 l19 45 -26 -30 c-76 -90 -144 -189
-149 -218 -9 -48 11 -89 94 -187 52 -62 88 -119 132 -210 112 -229 193 -317
374 -405 90 -44 245 -95 288 -95 17 0 0 114 -26 181 l-26 64 39 -43 c54 -60
70 -115 76 -257 10 -210 87 -390 228 -531 58 -57 94 -82 192 -133 66 -34 144
-83 173 -108 l53 -47 -7 35 c-6 30 -37 123 -60 184 -14 37 74 -57 117 -125 98
-152 152 -200 227 -200 29 0 57 7 75 19 29 20 30 20 59 -1 23 -16 39 -19 83
-16 73 6 112 38 194 161 87 128 180 225 137 140 -20 -39 -57 -152 -57 -175 0
-16 10 -11 53 27 28 25 104 73 169 105 172 88 252 169 341 345 52 104 67 166
77 310 11 154 28 209 82 267 24 26 34 33 25 17 -23 -40 -47 -128 -47 -176 0
-24 2 -43 4 -43 3 0 35 7 73 16 143 33 277 98 390 191 60 48 122 139 191 279
41 83 85 152 145 227 124 155 124 174 1 329 -38 47 -94 121 -124 163 -52 72
-182 189 -291 262 -37 25 -171 67 -191 61 -25 -9 175 -155 459 -336 71 -45 97
-99 101 -214 3 -69 0 -100 -18 -152 -12 -36 -25 -68 -30 -71 -4 -3 -5 24 -3
59 10 117 -53 261 -158 364 -24 24 -82 69 -129 100 -47 31 -130 101 -185 156
-114 115 -169 161 -240 201 -27 15 -64 36 -81 46 l-32 19 -17 -90z m-2275
-1021 c76 -61 201 -145 325 -219 107 -63 115 -70 84 -70 -54 0 -157 28 -226
61 -102 49 -224 177 -259 274 -9 23 -10 23 76 -46z m2698 -1 c-46 -86 -148
-186 -229 -225 -73 -36 -186 -66 -233 -61 -29 3 -26 5 44 42 96 51 286 179
370 250 36 30 69 55 73 55 5 1 -7 -27 -25 -61z m-2753 -161 c26 -29 69 -90 97
-137 27 -47 57 -93 67 -104 15 -18 15 -18 -9 -11 -107 32 -179 114 -230 260
-10 27 -21 59 -26 69 -7 19 -5 18 24 -2 17 -13 52 -46 77 -75z m2835 12 c-36
-99 -80 -169 -130 -209 -32 -25 -98 -60 -114 -60 -2 0 26 48 62 108 58 93 184
242 205 242 4 0 -7 -37 -23 -81z m-2046 -872 c19 -15 57 -38 83 -52 l48 -24
-36 -1 c-113 -1 -207 84 -225 202 l-7 43 51 -70 c27 -38 66 -82 86 -98z m1301
96 c-21 -74 -53 -115 -109 -142 -44 -22 -146 -44 -146 -32 0 4 16 13 35 20 54
19 132 86 183 157 25 35 48 61 50 59 2 -2 -4 -30 -13 -62z m-1179 -74 c66 -40
28 -36 -63 8 -29 13 -53 28 -53 33 0 12 73 -14 116 -41z m1043 35 c-17 -20
-55 -39 -104 -52 l-40 -11 28 22 c26 20 101 55 121 56 5 1 3 -6 -5 -15z m-874
-74 c36 -24 94 -51 145 -66 130 -39 134 -43 54 -43 -99 -1 -167 21 -223 74
-25 24 -55 58 -66 77 l-19 33 24 -17 c14 -10 52 -36 85 -58z m666 16 c-61 -88
-139 -126 -260 -126 -76 0 -71 10 19 34 74 20 180 73 231 115 19 16 36 28 37
26 2 -2 -10 -24 -27 -49z m4 -112 c-36 -154 -129 -235 -269 -234 l-51 1 75 36
c89 43 160 111 215 205 21 37 40 66 42 64 2 -2 -3 -34 -12 -72z m-709 0 c49
-84 125 -154 217 -199 l72 -36 -70 4 c-125 7 -208 73 -245 195 -18 59 -25 102
-16 102 2 0 21 -30 42 -66z m-254 -98 c19 -14 45 -29 58 -35 24 -9 24 -10 -8
-10 -68 -2 -138 49 -161 118 -24 72 -12 77 33 14 25 -34 60 -73 78 -87z m1298
79 c-24 -74 -91 -125 -162 -125 l-33 0 50 28 c34 18 66 48 100 94 51 69 67 70
45 3z m-110 5 c-6 -11 -27 -28 -48 -39 -37 -18 -141 -45 -149 -38 -9 10 138
79 205 96 1 1 -2 -8 -8 -19z m-1095 -21 c30 -11 64 -29 77 -40 l23 -20 -30 6
c-81 16 -133 37 -155 61 l-25 27 28 -7 c15 -4 52 -16 82 -27z"/>
<path d="M1150 3508 c-19 -5 -51 -13 -71 -19 -35 -9 -159 -96 -265 -186 -28
-23 -70 -70 -93 -103 l-43 -61 44 30 c23 16 88 57 143 92 134 85 250 168 305
217 46 42 42 48 -20 30z"/>
</g>
</svg>
